<svg width="24" height="25" viewBox="0 0 24 25" fill="none" xmlns="http://www.w3.org/2000/svg">
<path d="M4.57492 5.34799C4.85621 5.06679 5.23768 4.90881 5.63542 4.90881C6.03317 4.90881 6.41463 5.06679 6.69592 5.34799L11.9999 10.652L17.3039 5.34799C17.5868 5.07476 17.9657 4.92356 18.359 4.92698C18.7523 4.9304 19.1285 5.08815 19.4066 5.36627C19.6848 5.64438 19.8425 6.0206 19.8459 6.41389C19.8493 6.80719 19.6982 7.18609 19.4249 7.46899L14.1209 12.773L19.4249 18.077C19.6982 18.3599 19.8493 18.7388 19.8459 19.1321C19.8425 19.5254 19.6848 19.9016 19.4066 20.1797C19.1285 20.4578 18.7523 20.6156 18.359 20.619C17.9657 20.6224 17.5868 20.4712 17.3039 20.198L11.9999 14.894L6.69592 20.198C6.41302 20.4712 6.03412 20.6224 5.64082 20.619C5.24752 20.6156 4.87131 20.4578 4.59319 20.1797C4.31508 19.9016 4.15733 19.5254 4.15391 19.1321C4.15049 18.7388 4.30168 18.3599 4.57492 18.077L9.87892 12.773L4.57492 7.46899C4.29372 7.1877 4.13574 6.80624 4.13574 6.40849C4.13574 6.01075 4.29372 5.62928 4.57492 5.34799Z" fill="white"/>
</svg>
