<svg width="25" height="25" viewBox="0 0 25 25" fill="none" xmlns="http://www.w3.org/2000/svg">
<path d="M21.1381 3.6145L13.6428 9.18136L15.0289 5.89699L21.1381 3.6145Z" fill="#E2761B" stroke="#E2761B" stroke-linecap="round" stroke-linejoin="round"/>
<path d="M3.83496 3.6145L11.27 9.23409L9.95172 5.89699L3.83496 3.6145Z" fill="#E4761B" stroke="#E4761B" stroke-linecap="round" stroke-linejoin="round"/>
<path d="M18.4413 16.5184L16.4451 19.5768L20.7163 20.752L21.9441 16.5862L18.4413 16.5184Z" fill="#E4761B" stroke="#E4761B" stroke-linecap="round" stroke-linejoin="round"/>
<path d="M3.04395 16.5862L4.26428 20.752L8.53547 19.5768L6.53924 16.5184L3.04395 16.5862Z" fill="#E4761B" stroke="#E4761B" stroke-linecap="round" stroke-linejoin="round"/>
<path d="M8.29446 11.3508L7.10425 13.1512L11.3453 13.3395L11.1946 8.7821L8.29446 11.3508Z" fill="#E4761B" stroke="#E4761B" stroke-linecap="round" stroke-linejoin="round"/>
<path d="M16.6786 11.3508L13.7407 8.72937L13.6428 13.3395L17.8763 13.1512L16.6786 11.3508Z" fill="#E4761B" stroke="#E4761B" stroke-linecap="round" stroke-linejoin="round"/>
<path d="M8.5354 19.5769L11.0815 18.334L8.88192 16.6165L8.5354 19.5769Z" fill="#E4761B" stroke="#E4761B" stroke-linecap="round" stroke-linejoin="round"/>
<path d="M13.8914 18.334L16.445 19.5769L16.091 16.6165L13.8914 18.334Z" fill="#E4761B" stroke="#E4761B" stroke-linecap="round" stroke-linejoin="round"/>
<path d="M16.445 19.577L13.8914 18.3341L14.0947 19.9989L14.0721 20.6995L16.445 19.577Z" fill="#D7C1B3" stroke="#D7C1B3" stroke-linecap="round" stroke-linejoin="round"/>
<path d="M8.5354 19.577L10.9083 20.6995L10.8932 19.9989L11.0815 18.3341L8.5354 19.577Z" fill="#D7C1B3" stroke="#D7C1B3" stroke-linecap="round" stroke-linejoin="round"/>
<path d="M10.9461 15.5165L8.82178 14.8913L10.3208 14.2058L10.9461 15.5165Z" fill="#233447" stroke="#233447" stroke-linecap="round" stroke-linejoin="round"/>
<path d="M14.0269 15.5165L14.6521 14.2058L16.1587 14.8913L14.0269 15.5165Z" fill="#233447" stroke="#233447" stroke-linecap="round" stroke-linejoin="round"/>
<path d="M8.53554 19.5769L8.89712 16.5186L6.53931 16.5864L8.53554 19.5769Z" fill="#CD6116" stroke="#CD6116" stroke-linecap="round" stroke-linejoin="round"/>
<path d="M16.0835 16.5186L16.4451 19.5769L18.4413 16.5864L16.0835 16.5186Z" fill="#CD6116" stroke="#CD6116" stroke-linecap="round" stroke-linejoin="round"/>
<path d="M17.8763 13.1512L13.6428 13.3396L14.0345 15.5166L14.6598 14.2059L16.1664 14.8914L17.8763 13.1512Z" fill="#CD6116" stroke="#CD6116" stroke-linecap="round" stroke-linejoin="round"/>
<path d="M8.82176 14.8914L10.3284 14.2059L10.9461 15.5166L11.3453 13.3396L7.10425 13.1512L8.82176 14.8914Z" fill="#CD6116" stroke="#CD6116" stroke-linecap="round" stroke-linejoin="round"/>
<path d="M7.10425 13.1512L8.88203 16.6164L8.82176 14.8914L7.10425 13.1512Z" fill="#E4751F" stroke="#E4751F" stroke-linecap="round" stroke-linejoin="round"/>
<path d="M16.1664 14.8914L16.0911 16.6164L17.8764 13.1512L16.1664 14.8914Z" fill="#E4751F" stroke="#E4751F" stroke-linecap="round" stroke-linejoin="round"/>
<path d="M11.3453 13.3395L10.946 15.5165L11.4432 18.0852L11.5562 14.7029L11.3453 13.3395Z" fill="#E4751F" stroke="#E4751F" stroke-linecap="round" stroke-linejoin="round"/>
<path d="M13.6428 13.3395L13.4395 14.6954L13.5298 18.0852L14.0346 15.5165L13.6428 13.3395Z" fill="#E4751F" stroke="#E4751F" stroke-linecap="round" stroke-linejoin="round"/>
<path d="M14.0345 15.5166L13.5298 18.0853L13.8914 18.3339L16.091 16.6164L16.1663 14.8914L14.0345 15.5166Z" fill="#F6851B" stroke="#F6851B" stroke-linecap="round" stroke-linejoin="round"/>
<path d="M8.82178 14.8914L8.88204 16.6164L11.0817 18.3339L11.4432 18.0853L10.9461 15.5166L8.82178 14.8914Z" fill="#F6851B" stroke="#F6851B" stroke-linecap="round" stroke-linejoin="round"/>
<path d="M14.0721 20.6994L14.0947 19.9989L13.9064 19.8331H11.0665L10.8932 19.9989L10.9083 20.6994L8.5354 19.577L9.36403 20.255L11.0439 21.4226H13.929L15.6164 20.255L16.445 19.577L14.0721 20.6994Z" fill="#C0AD9E" stroke="#C0AD9E" stroke-linecap="round" stroke-linejoin="round"/>
<path d="M13.8914 18.334L13.5298 18.0854H11.4432L11.0816 18.334L10.8933 19.9988L11.0666 19.8331H13.9065L14.0948 19.9988L13.8914 18.334Z" fill="#161616" stroke="#161616" stroke-linecap="round" stroke-linejoin="round"/>
<path d="M21.4544 9.54294L22.0947 6.46949L21.1381 3.6145L13.8914 8.99303L16.6786 11.3508L20.6183 12.5034L21.4921 11.4864L21.1155 11.2153L21.7181 10.6653L21.2511 10.3038L21.8537 9.84426L21.4544 9.54294Z" fill="#763D16" stroke="#763D16" stroke-linecap="round" stroke-linejoin="round"/>
<path d="M2.88574 6.46949L3.52604 9.54294L3.11926 9.84426L3.7219 10.3038L3.26239 10.6653L3.86503 11.2153L3.48838 11.4864L4.35467 12.5034L8.29441 11.3508L11.0816 8.99303L3.8349 3.6145L2.88574 6.46949Z" fill="#763D16" stroke="#763D16" stroke-linecap="round" stroke-linejoin="round"/>
<path d="M20.6184 12.5035L16.6786 11.351L17.8764 13.1513L16.0911 16.6165L18.4413 16.5864H21.9442L20.6184 12.5035Z" fill="#F6851B" stroke="#F6851B" stroke-linecap="round" stroke-linejoin="round"/>
<path d="M8.29442 11.351L4.35468 12.5035L3.04395 16.5864H6.53924L8.88199 16.6165L7.10421 13.1513L8.29442 11.351Z" fill="#F6851B" stroke="#F6851B" stroke-linecap="round" stroke-linejoin="round"/>
<path d="M13.6428 13.3398L13.8914 8.99326L15.0364 5.89722H9.95166L11.0816 8.99326L11.3453 13.3398L11.4357 14.7108L11.4432 18.0855H13.5298L13.5449 14.7108L13.6428 13.3398Z" fill="#F6851B" stroke="#F6851B" stroke-linecap="round" stroke-linejoin="round"/>
</svg>
