<svg width="16" height="25" viewBox="0 0 16 25" fill="none" xmlns="http://www.w3.org/2000/svg">
<path d="M0.723145 14.7334L1.26091 14.4838L7.88526 11.3837L15.0474 14.7334L12.3585 20.7105L5.78307 21.7088L0.833143 15.9683L0.723145 14.7334Z" fill="#133444"/>
<path d="M13.5677 11.055C12.3821 9.51808 10.7077 8.53285 8.87439 8.27013L8.75216 8.25699C8.17773 8.17817 7.60329 8.17817 7.02886 8.25699L6.90664 8.27013C5.07333 8.53285 3.39891 9.53122 2.21337 11.055L1.92004 11.5805L1.41894 12.4606L1.05228 13.1043C1.05228 13.1174 1.04005 13.1437 1.02783 13.1569V13.17L1.82227 13.6823L6.89441 16.9139L7.87218 17.5313V9.82022L6.89441 10.2931V9.13713L7.87218 8.66422L8.84994 9.13713L13.8365 11.5805L13.5677 11.055Z" fill="#C42370"/>
<path d="M15.2667 16.6513C15.2545 19.1866 14.1912 21.5775 12.3701 23.1801C11.6734 23.7975 10.8912 24.2573 10.0357 24.5725C9.339 24.8221 8.6179 24.9404 7.88457 24.9404C3.80241 24.9404 0.490234 21.0389 0.490234 16.6513C0.490234 16.0076 0.563567 15.3639 0.710231 14.7334L7.87235 19.2917L15.0345 14.7334C15.1934 15.3639 15.2789 16.0076 15.2667 16.6513Z" fill="#1C4D6B"/>
<path d="M7.02969 8.2577L7.88524 8.66493L6.90747 9.15098V8.19202L7.02969 8.2577Z" fill="black"/>
<path d="M6.90747 10.307L7.88524 9.82092V17.5451L6.90747 16.9146V10.307Z" fill="black"/>
<path d="M7.88403 9.82092V17.5451L14.7528 13.1838L7.88403 9.82092Z" fill="#1D4259"/>
<path d="M7.88403 0.94043V9.82061L14.7528 13.1835L7.88403 0.94043Z" fill="#4B6B9A"/>
<path d="M7.88392 9.82027V17.5313L6.90616 16.9139L1.02736 13.1832H1.01514H1.02736C1.02736 13.17 1.03958 13.1438 1.0518 13.1306L1.90735 11.5937L6.89394 9.16345V10.3063L7.88392 9.82027Z" fill="#343535"/>
<path d="M7.8844 9.82092V17.5451L6.90664 16.9146L1.02783 13.1838L1.04005 13.1707L6.90664 10.307L7.8844 9.82092Z" fill="#3E5578"/>
<path d="M7.8844 0.94043V9.82061L1.02783 13.1835L7.8844 0.94043Z" fill="#6DB2D8"/>
<path d="M5.1106 24.3101C5.20837 24.3626 5.31837 24.402 5.41614 24.4414C5.31837 24.402 5.22059 24.3495 5.1106 24.3101Z" fill="#335F8A"/>
<path d="M5.41528 24.4413C5.51306 24.4807 5.62306 24.5332 5.73306 24.5595C5.63528 24.5332 5.52528 24.4938 5.41528 24.4413Z" fill="#335F8A"/>
<path d="M6.01514 24.6516C6.10069 24.6779 6.17402 24.7042 6.25958 24.7173C6.17402 24.7042 6.08847 24.6779 6.01514 24.6516Z" fill="#335F8A"/>
<path d="M0.722682 14.7334L7.8848 19.2917C7.78702 19.9879 7.61592 20.6579 7.37148 21.3147C6.79704 22.8123 5.64817 24.3886 3.39931 23.1801C1.57823 21.5774 0.514908 19.1866 0.502686 16.6513C0.502686 16.0076 0.576018 15.3639 0.722682 14.7334Z" fill="#6DB2D8"/>
<path d="M12.3708 23.1802L12.3463 23.1933C12.3097 23.2196 12.273 23.259 12.2363 23.2852L12.2241 23.2984C12.1875 23.3378 12.1386 23.3641 12.1019 23.4035C12.053 23.4429 12.0163 23.4823 11.9675 23.5086C11.9186 23.5348 11.8697 23.5742 11.833 23.6137C11.7841 23.6531 11.7475 23.6662 11.7108 23.7056L11.6864 23.7188C11.6375 23.745 11.6008 23.7713 11.5641 23.8107C11.5641 23.8107 11.5519 23.8107 11.5519 23.8238C11.503 23.8501 11.4664 23.8764 11.4175 23.9158C11.3686 23.9421 11.3197 23.9683 11.2708 24.0077C11.2219 24.034 11.173 24.0603 11.1241 24.0866L10.9775 24.1654C10.9286 24.1917 10.8797 24.2179 10.8308 24.2442C10.7819 24.2705 10.733 24.2968 10.6841 24.323C10.5864 24.3756 10.4764 24.415 10.3786 24.4544C10.2808 24.4938 10.1708 24.5332 10.0608 24.5726C10.0242 24.5858 9.97527 24.5989 9.9386 24.612L9.79194 24.6646C9.70638 24.6908 9.63305 24.7171 9.5475 24.7302C9.52305 24.7434 9.48639 24.7434 9.44972 24.7565L9.40083 24.7697L9.26639 24.7959C9.2175 24.8091 9.19306 24.8091 9.14417 24.8222C9.1075 24.8353 9.07084 24.8353 9.03417 24.8485C8.99751 24.8485 8.94862 24.8616 8.91195 24.8747C8.88751 24.8747 8.87528 24.8748 8.85084 24.8879L8.75306 24.901H8.70418C8.66751 24.901 8.63084 24.9142 8.6064 24.9142C8.56973 24.9142 8.52085 24.9273 8.48418 24.9273C8.44751 24.9273 8.42307 24.9273 8.3864 24.9273C8.34974 24.9273 8.32529 24.9273 8.30085 24.9273C8.26418 24.9273 8.22752 24.9273 8.20307 24.9273C8.17863 24.9273 8.1053 24.9273 8.06863 24.9273H7.7753C7.72641 24.9273 7.67753 24.9273 7.64086 24.9273C7.60419 24.9273 7.56753 24.9273 7.54308 24.9273C7.51864 24.9273 7.48197 24.9273 7.45753 24.9273C7.43308 24.9273 7.39642 24.9273 7.35975 24.9273C7.32309 24.9273 7.2742 24.9142 7.23753 24.9142C7.20087 24.9142 7.1642 24.9142 7.13976 24.901H7.09087C7.06642 24.901 7.02976 24.8879 6.99309 24.8879C6.96865 24.8879 6.95643 24.8879 6.93198 24.8747C6.89532 24.8747 6.84643 24.8616 6.80976 24.8485C6.77309 24.8485 6.73643 24.8353 6.69976 24.8222C6.6631 24.8222 6.61421 24.8091 6.57754 24.7959C6.54088 24.7828 6.49199 24.7697 6.4431 24.7697L6.39421 24.7565C6.35755 24.7565 6.32088 24.7434 6.29643 24.7434C6.21088 24.7171 6.12533 24.6908 6.05199 24.6777L5.90533 24.6252C5.85644 24.612 5.81978 24.5989 5.78311 24.5858C5.67311 24.5463 5.57533 24.5069 5.46534 24.4675C5.35534 24.4281 5.25756 24.3756 5.15979 24.3362C5.1109 24.3099 5.06201 24.2836 5.01312 24.2573L4.86646 24.1785L4.71979 24.0997C4.6709 24.0734 4.62202 24.0472 4.57313 24.0209C4.52424 23.9946 4.47535 23.9683 4.42646 23.9289C4.37758 23.9027 4.34091 23.8764 4.29202 23.837L4.2798 23.8238C4.23091 23.7976 4.19424 23.7713 4.15758 23.7319L4.13313 23.7188C4.09647 23.6925 4.04758 23.6662 4.01091 23.6268C3.97425 23.6005 3.91314 23.5611 3.87647 23.5217C3.82758 23.4823 3.7787 23.456 3.74203 23.4166L3.61981 23.3115L3.60759 23.2984C3.57092 23.2721 3.53425 23.2327 3.49759 23.2064L3.47314 23.1933C5.70978 24.3887 6.87087 22.8123 7.44531 21.3279C7.68975 20.6842 7.86086 20.0012 7.95863 19.3049C8.05641 20.0012 8.22752 20.6711 8.47196 21.3279C8.97306 22.7992 10.1342 24.3756 12.3708 23.1802Z" fill="#529BBA"/>
<path d="M9.52295 24.7302C9.6085 24.704 9.69406 24.6777 9.76739 24.6646C9.69406 24.6777 9.6085 24.704 9.52295 24.7302Z" fill="#335F8A"/>
<path d="M10.0356 24.5595C10.1456 24.5201 10.2434 24.4807 10.3534 24.4413C10.2556 24.4938 10.1456 24.5332 10.0356 24.5595Z" fill="#335F8A"/>
<path d="M10.3528 24.4414C10.4506 24.402 10.5606 24.3495 10.6583 24.3101C10.5606 24.3495 10.4628 24.402 10.3528 24.4414Z" fill="#335F8A"/>
<path d="M15.2661 16.6513C15.2539 19.1866 14.1906 21.5775 12.3695 23.1801C10.1329 24.3755 8.9718 22.7991 8.39736 21.3147C8.15292 20.671 7.98181 19.9879 7.88403 19.2917L15.0462 14.7334C15.1928 15.3639 15.2661 16.0076 15.2661 16.6513Z" fill="#4B6B9A"/>
</svg>
