<svg width="24" height="22" viewBox="0 0 24 22" fill="none" xmlns="http://www.w3.org/2000/svg">
<path d="M21.3339 0.877075H3.83386C1.9042 0.877075 0.333862 2.44741 0.333862 4.37708V18.3771C0.333862 20.3067 1.9042 21.8771 3.83386 21.8771H21.3339C22.6207 21.8771 23.6672 20.8306 23.6672 19.5437V3.21041C23.6672 1.92358 22.6207 0.877075 21.3339 0.877075ZM3.83386 19.5437C3.18986 19.5437 2.6672 19.0199 2.6672 18.3771V4.37708C2.6672 3.73424 3.18986 3.21041 3.83386 3.21041H21.3339V6.71041H14.3339C13.047 6.71041 12.0005 7.75691 12.0005 9.04374V13.7104C12.0005 14.9972 13.047 16.0437 14.3339 16.0437H21.335V19.5437H3.83386ZM21.3339 9.04374V13.7104H14.3339V9.04374H21.3339Z" fill="white"/>
</svg>
